# xmcd
#
# Track frame offsets: 
#        150
#        20441
#        38468
#        55821
#        73535
#        92076
#        122653
#
# Disc length: 1903 seconds
#
# Revision: 0
# Processed by: cddbd v1.5.2PL0 Copyright (c) Steve Scherf et al.
# Submitted via: ExactAudioCopyFreeDBPlugin 1.0
#
DISCID=50076d07
DTITLE=なかの綾 - へたなうそ
DYEAR=2013
DGENRE=JPop
TTITLE0=ラヴ・イズ・オーヴァー
TTITLE1=私はピアノ
TTITLE2=つぐない
TTITLE3=ホテル
TTITLE4=すずめの涙
TTITLE5=誰より好きなのに
TTITLE6=恋におちて～Fall In Love～
EXTD=
EXTT0=
EXTT1=
EXTT2=
EXTT3=
EXTT4=
EXTT5=
EXTT6=
PLAYORDER=
